<?xml version="1.0" standalone="no"?>
<!DOCTYPE svg PUBLIC "-//W3C//DTD SVG 20010904//EN"
 "http://www.w3.org/TR/2001/REC-SVG-20010904/DTD/svg10.dtd">
<svg version="1.0" xmlns="http://www.w3.org/2000/svg"
 width="260.000000pt" height="260.000000pt" viewBox="0 0 260.000000 260.000000"
 preserveAspectRatio="xMidYMid meet">
<metadata>
Created by potrace 1.14, written by Peter Selinger 2001-2017
</metadata>
<g transform="translate(0.000000,260.000000) scale(0.100000,-0.100000)"
fill="#000000" stroke="none">
<path d="M2405 2592 c2 -3 0 -11 -6 -19 -8 -9 -8 -17 0 -26 6 -8 7 -18 3 -22
-4 -5 -1 -5 6 -1 7 4 12 2 12 -5 0 -7 3 -10 6 -7 3 4 -2 17 -11 31 -11 17 -13
27 -6 32 6 3 11 1 11 -5 0 -6 4 -9 9 -6 5 4 7 -3 4 -14 -3 -12 0 -20 6 -20 7
0 10 -4 7 -9 -4 -5 -3 -11 1 -14 5 -2 2 -2 -6 0 -8 2 -11 -2 -8 -10 3 -8 1
-20 -4 -28 -8 -12 -10 -12 -8 1 3 30 -1 40 -18 40 -11 0 -14 -3 -7 -8 6 -4 11
-14 11 -22 0 -8 4 -24 8 -35 5 -15 4 -16 -3 -6 -6 8 -17 11 -26 8 -8 -3 -18
-1 -22 5 -5 7 -2 8 6 3 9 -6 11 -4 5 5 -6 9 -4 12 7 8 8 -4 15 0 15 8 0 7 -6
15 -14 18 -7 3 -12 2 -12 -2 3 -20 -2 -25 -12 -12 -8 12 -9 11 -7 -5 2 -15 -2
-19 -17 -17 -16 2 -17 1 -5 -7 8 -5 17 -8 20 -7 3 2 14 -5 25 -16 19 -19 18
-19 -28 1 -36 16 -53 18 -65 11 -14 -9 -12 -10 7 -4 l24 6 -28 -36 c-15 -20
-30 -34 -33 -32 -3 3 1 12 7 20 9 11 9 16 0 22 -7 4 -9 3 -5 -4 3 -6 2 -13 -4
-17 -5 -3 -10 -1 -10 6 0 7 -3 10 -6 7 -3 -4 0 -16 6 -28 10 -18 9 -24 -1 -31
-8 -5 -9 -9 -3 -9 6 0 22 16 36 36 24 33 26 34 25 11 -1 -15 -7 -23 -14 -20
-7 3 -13 0 -13 -6 0 -10 14 -15 33 -12 5 1 6 -3 2 -9 -4 -7 -13 -7 -26 1 -17
9 -20 7 -17 -8 2 -10 10 -21 18 -25 11 -6 10 -7 -5 -5 -11 2 -19 9 -18 15 4
17 -32 15 -46 -2 -9 -11 -9 -16 0 -22 7 -4 9 -3 6 3 -4 6 0 14 9 17 8 3 12 2
9 -4 -3 -6 -2 -10 4 -10 5 0 9 -9 8 -19 0 -11 -5 -17 -9 -15 -5 3 -6 10 -3 15
4 5 2 9 -3 9 -17 0 -21 -13 -11 -34 9 -18 8 -19 -3 -6 -7 9 -17 15 -23 15 -16
0 -54 -42 -47 -51 4 -5 0 -3 -9 4 -9 6 -19 9 -23 5 -4 -4 -4 1 0 11 5 14 9 15
15 4 7 -10 9 -11 9 0 0 7 5 10 12 6 6 -4 8 -3 4 4 -3 5 0 13 6 15 10 4 10 6 0
6 -7 1 -11 5 -8 9 3 5 -1 9 -9 9 -8 0 -15 -4 -15 -9 0 -4 5 -8 11 -8 5 0 7 -5
4 -10 -4 -7 -13 -7 -25 0 -16 9 -18 8 -13 -6 3 -9 0 -20 -7 -24 -10 -6 -10
-12 0 -26 10 -17 11 -17 6 -1 -5 15 -2 16 14 7 11 -6 20 -13 20 -16 0 -3 -4
-3 -9 0 -4 3 -19 -6 -31 -19 -13 -14 -18 -25 -12 -25 6 0 14 5 17 10 3 6 12
10 18 10 7 0 4 -5 -6 -11 -9 -6 -15 -14 -12 -19 3 -5 0 -12 -6 -16 -8 -4 -9
-3 -5 4 4 7 2 12 -4 12 -6 0 -14 -10 -19 -22 -7 -19 -8 -19 -14 -4 -4 10 -12
14 -18 10 -8 -4 -9 -3 -5 4 4 6 14 8 23 5 10 -4 14 -2 9 5 -3 6 -2 13 3 17 11
6 3 35 -9 35 -5 0 -7 -9 -5 -20 2 -11 -1 -20 -6 -20 -6 0 -20 -10 -31 -22 -18
-21 -19 -21 -14 -3 6 18 5 19 -7 3 -13 -16 -15 -16 -31 0 -17 16 -18 16 -5 -5
8 -13 20 -25 27 -28 7 -2 11 -1 8 3 -3 5 1 9 9 9 8 0 15 -3 15 -6 0 -7 -41
-34 -44 -29 -2 2 -8 12 -15 23 -11 18 -11 18 -5 -5 4 -14 12 -29 18 -33 6 -5
2 -6 -10 -2 -17 4 -22 1 -20 -12 0 -11 -5 -17 -16 -17 -10 1 -15 -2 -12 -7 3
-5 0 -9 -5 -9 -6 0 -11 -5 -11 -10 0 -6 14 -4 33 5 18 9 25 11 16 3 -9 -7 -15
-19 -13 -26 1 -7 0 -8 -3 -2 -8 17 -19 11 -20 -10 -1 -13 2 -18 9 -14 7 4 8 2
4 -4 -4 -6 -13 -9 -21 -6 -8 4 -12 10 -9 15 3 5 -2 9 -10 9 -9 0 -16 5 -16 10
0 6 -5 10 -11 10 -8 0 -9 -4 0 -13 6 -8 7 -18 3 -22 -4 -5 -1 -5 5 -1 9 5 11
2 6 -10 -4 -10 -2 -15 4 -11 5 3 10 0 10 -8 0 -19 -5 -19 -24 0 -8 8 -19 12
-25 9 -6 -4 -5 -10 3 -15 11 -7 10 -9 -4 -9 -12 0 -16 -5 -11 -12 5 -10 4 -10
-6 -1 -16 15 -40 6 -40 -16 0 -14 2 -14 10 -1 5 8 11 12 14 9 3 -3 -5 -15 -17
-27 -18 -17 -24 -19 -24 -8 0 8 4 13 9 10 4 -3 8 -3 8 0 0 3 -9 10 -21 16 -19
10 -19 10 -10 -8 13 -25 -7 -45 -35 -36 -11 3 -15 2 -8 -3 6 -4 10 -16 8 -25
-1 -10 2 -18 8 -18 6 0 8 7 5 14 -4 11 -1 13 10 9 12 -5 14 -3 8 7 -6 9 -4 11
5 5 9 -6 11 -4 5 5 -6 9 -4 11 4 5 7 -4 23 3 39 16 l27 24 -21 -25 c-12 -14
-20 -33 -19 -42 2 -10 -1 -20 -5 -23 -5 -3 -7 4 -5 15 2 11 0 20 -4 20 -12 0
-32 -26 -26 -33 3 -4 2 -5 -2 -2 -4 3 -13 -5 -20 -17 -7 -13 -13 -16 -12 -8 1
8 -3 26 -9 40 -9 22 -11 22 -12 5 l-1 -20 -15 20 c-11 14 -15 15 -14 5 1 -8
-1 -26 -5 -39 -8 -23 -9 -23 -23 -5 -11 15 -13 15 -9 2 4 -10 -1 -19 -11 -23
-13 -5 -14 -8 -3 -14 11 -7 9 -11 -6 -20 -11 -5 -23 -7 -27 -4 -3 3 -6 1 -6
-6 0 -7 7 -10 18 -7 19 6 36 -3 39 -21 2 -7 -4 -10 -12 -7 -8 4 -12 11 -8 18
4 6 -1 4 -12 -4 -21 -17 -24 -17 -37 2 -6 9 -7 5 -3 -10 6 -22 5 -23 -15 -12
-12 6 -24 9 -27 7 -2 -3 5 -8 16 -12 24 -7 28 -22 6 -22 -8 0 -15 5 -15 11 0
23 -30 -34 -32 -61 -2 -41 -16 -56 -34 -38 -8 8 -22 11 -30 8 -12 -4 -13 -8
-3 -14 7 -4 17 -5 21 -3 4 3 8 1 8 -4 0 -15 -28 -22 -34 -9 -3 7 -3 1 0 -12 4
-15 2 -21 -5 -17 -15 10 -53 -13 -45 -26 5 -7 12 -5 21 7 13 18 13 18 27 -1 8
-10 12 -21 9 -24 -3 -3 -8 1 -10 8 -5 13 -24 17 -22 5 1 -5 1 -15 0 -23 -1
-13 -2 -13 -11 0 -11 18 -70 23 -70 5 0 -7 -7 -12 -16 -11 -18 1 -28 -30 -13
-40 5 -3 7 -11 3 -17 -3 -7 4 -1 15 12 12 12 18 27 15 32 -3 5 0 9 6 9 6 0 8
6 4 13 -4 6 2 3 14 -7 25 -22 30 -35 6 -15 -15 12 -16 11 -11 -11 4 -14 4 -19
1 -12 -10 21 -52 -44 -48 -74 2 -25 2 -25 -17 -8 -22 20 -26 32 -5 14 12 -9
15 -8 13 8 -1 19 -3 19 -29 6 -16 -8 -33 -12 -38 -9 -14 8 -22 -13 -12 -31 8
-15 11 -14 25 7 9 12 20 19 24 15 5 -5 3 -11 -4 -13 -7 -2 -11 -10 -9 -16 1
-7 1 -9 -1 -4 -3 4 -9 4 -14 1 -6 -3 -5 -12 3 -21 12 -15 11 -15 -9 -3 -12 8
-25 26 -29 40 -3 14 -9 19 -11 13 -3 -7 -11 -13 -19 -13 -9 0 -12 5 -9 10 3 6
2 10 -3 10 -5 0 -9 -11 -9 -24 -1 -24 1 -24 22 -10 22 14 23 14 20 -3 -2 -10
-4 -20 -5 -23 -1 -3 -2 -9 -1 -13 1 -5 -3 -6 -9 -2 -8 5 -7 11 1 21 7 9 8 14
1 14 -6 0 -14 -5 -17 -10 -4 -7 -12 -7 -25 0 -13 7 -21 7 -25 0 -10 -16 -25
-12 -25 8 0 13 2 14 9 3 6 -9 11 -10 15 -2 4 6 12 8 18 5 7 -5 8 -2 3 6 -6 9
-4 11 5 5 9 -6 11 -4 5 4 -5 9 -10 10 -18 2 -16 -16 -25 -14 -23 5 0 9 -6 19
-14 21 -13 4 -13 3 0 -6 8 -5 12 -13 8 -16 -9 -9 -59 25 -53 35 3 5 0 12 -6
16 -7 4 -9 3 -5 -4 3 -6 2 -13 -3 -17 -6 -3 -8 -12 -5 -19 6 -16 -12 -31 -21
-17 -3 6 -12 8 -20 4 -8 -3 -15 0 -15 7 0 6 4 9 9 6 11 -7 27 12 35 44 3 14 3
19 0 12 -3 -6 -10 -9 -15 -6 -6 3 -5 12 3 22 10 12 10 14 1 8 -7 -4 -13 -3
-13 2 0 13 -71 82 -84 82 -5 0 -1 -7 10 -15 10 -8 15 -15 9 -16 -37 -6 -54 -5
-49 2 3 5 0 9 -6 9 -6 0 -8 5 -5 10 3 6 2 10 -4 10 -5 0 -13 -9 -16 -21 -4
-11 -9 -18 -12 -16 -2 3 0 14 6 26 7 11 7 22 2 25 -5 4 -11 0 -14 -6 -2 -7 -4
-1 -3 13 1 27 1 27 39 -14 20 -22 40 -37 44 -34 3 4 1 7 -5 7 -6 0 -14 9 -17
20 -3 11 -13 20 -21 20 -20 0 -18 18 3 24 11 3 8 4 -7 3 -14 -1 -25 3 -25 11
0 7 -4 16 -10 20 -5 4 -12 16 -13 27 -6 31 -14 33 -10 2 3 -16 10 -32 17 -36
9 -6 3 -8 -15 -8 -16 0 -24 2 -18 4 13 4 7 43 -7 43 -5 0 -9 5 -9 11 0 5 5 7
10 4 6 -3 10 -1 10 4 0 6 -5 11 -11 11 -8 0 -7 5 1 15 11 13 10 14 -3 9 -8 -3
-18 -12 -21 -20 -4 -9 -2 -12 5 -8 6 3 3 -5 -6 -20 -15 -23 -34 -39 -21 -17 6
10 -18 34 -26 26 -2 -3 -4 5 -2 18 1 12 3 26 3 30 1 5 6 5 13 1 7 -4 8 -3 4 5
-4 6 -12 8 -18 5 -7 -4 -8 2 -3 17 9 28 3 24 -15 -10 -10 -19 -9 -22 1 -16 8
5 10 4 5 -3 -10 -17 -29 -15 -23 2 4 10 1 13 -7 10 -7 -3 -16 2 -19 10 -7 17
20 49 34 41 5 -3 7 8 5 25 -3 25 0 30 13 26 11 -4 10 -2 -3 9 -16 12 -17 18
-8 27 17 17 15 24 -9 47 -13 12 -17 21 -10 26 14 8 14 25 0 25 -7 0 -25 14
-41 30 -29 31 -50 42 -28 15 9 -10 9 -15 1 -16 -26 -3 -30 -4 -37 -11 -4 -5
-12 -8 -18 -8 -6 0 -3 5 7 11 15 9 16 13 5 27 -12 15 -11 16 5 3 11 -9 17 -10
17 -2 0 6 -4 11 -9 11 -16 0 -62 70 -66 100 -3 24 -1 28 13 23 9 -3 14 -3 11
1 -4 4 -16 8 -28 11 -17 3 -20 1 -12 -14 6 -9 8 -26 7 -37 -2 -10 2 -23 8 -27
7 -6 4 -7 -7 -3 -9 3 -17 0 -17 -6 0 -6 -3 -8 -6 -5 -4 4 -2 13 5 20 9 11 8
17 -2 26 -8 6 -17 8 -21 4 -4 -4 -4 1 0 12 7 17 6 18 -8 7 -13 -10 -19 -10
-31 2 -8 8 -18 12 -23 8 -5 -4 -2 1 5 11 11 13 11 20 1 32 -6 8 -8 20 -4 27 6
10 3 9 -9 -1 -16 -13 -16 -14 -1 -26 22 -16 1 -30 -23 -16 -10 6 -13 11 -7 11
6 0 11 6 11 13 0 6 3 19 5 27 3 8 3 12 1 7 -3 -4 -9 -4 -14 -1 -6 3 -5 12 3
22 10 12 10 14 1 8 -8 -4 -13 -2 -13 4 0 6 -5 8 -11 4 -8 -4 -7 -9 2 -15 10
-6 11 -9 2 -9 -7 0 -13 -5 -13 -11 0 -5 4 -8 9 -4 17 10 20 -10 5 -35 l-15
-25 7 24 c4 14 2 21 -4 17 -6 -3 -9 9 -7 31 1 20 7 39 14 41 6 2 11 9 11 15 0
6 -12 0 -27 -14 l-27 -24 19 30 18 30 -23 -20 -23 -20 12 23 c6 12 17 22 23
22 6 0 8 3 5 7 -4 3 -16 -2 -26 -11 -11 -10 -24 -15 -30 -12 -5 3 -12 1 -14
-4 -3 -6 -4 -5 -3 2 2 7 9 13 16 13 19 0 24 22 6 28 -9 4 -15 1 -13 -5 1 -6
-4 -13 -12 -16 -8 -3 -11 0 -7 7 4 6 2 11 -3 11 -6 0 -11 -4 -11 -10 0 -5 -8
-10 -17 -11 -13 0 -11 -3 6 -10 22 -9 23 -11 7 -27 -9 -10 -16 -23 -16 -29 0
-6 -7 -14 -16 -17 -24 -9 -31 -7 -12 5 11 6 15 16 11 26 -5 12 -3 14 7 8 9 -6
11 -4 5 5 -6 9 -4 11 6 5 12 -7 12 -5 1 6 -9 9 -15 10 -20 3 -4 -6 -16 -16
-27 -23 -14 -9 -15 -11 -3 -7 10 3 20 1 23 -4 6 -9 -8 -14 -28 -11 -5 1 -5 -3
-2 -9 4 -6 -1 -21 -12 -33 -13 -16 -14 -18 -1 -9 11 9 18 10 23 2 3 -5 11 -10
18 -10 6 0 2 7 -9 15 -16 12 -17 14 -3 15 16 0 34 -26 30 -44 -1 -5 6 -5 16
-2 14 6 15 4 6 -5 -6 -6 -17 -8 -25 -3 -7 5 -22 10 -33 11 -14 2 -9 -3 13 -17
18 -11 38 -17 44 -14 7 5 8 2 4 -5 -5 -7 -14 -10 -22 -7 -19 7 -17 -4 4 -20
16 -13 16 -14 -1 -8 -22 8 -20 -15 3 -33 13 -12 13 -12 0 -8 -11 4 -15 -2 -16
-21 -2 -25 -2 -25 20 -7 21 18 21 18 5 -2 -10 -12 -15 -32 -12 -47 2 -16 0
-28 -5 -28 -5 0 -8 10 -8 23 1 12 -4 30 -12 40 -10 11 -11 17 -4 17 17 0 15
17 -2 23 -10 4 -13 1 -9 -9 3 -8 -1 -14 -8 -14 -9 -1 -8 -4 4 -11 23 -13 23
-40 0 -32 -10 3 -15 2 -10 -2 4 -5 -1 -18 -10 -29 -14 -15 -14 -18 -2 -8 23
18 32 2 12 -22 -18 -21 -18 -21 3 -3 11 9 24 14 27 10 11 -11 8 -23 -6 -21 -6
2 -12 -4 -12 -12 0 -8 -5 -22 -10 -30 -7 -13 -6 -13 7 -2 10 8 14 21 11 30 -3
9 -3 14 2 10 4 -4 13 -3 20 2 8 7 12 5 12 -5 0 -8 -5 -11 -10 -8 -6 4 -8 0 -4
-10 3 -10 3 -17 -1 -17 -4 0 -18 -10 -32 -23 -14 -12 -21 -19 -15 -15 21 14
26 -5 8 -26 -18 -21 -18 -21 3 -3 11 9 24 14 27 10 4 -3 7 -1 7 5 0 7 -5 12
-11 12 -6 0 -9 5 -7 11 3 10 18 14 18 4 0 -3 9 -21 20 -40 12 -22 15 -34 7
-32 -7 1 -11 -8 -11 -21 1 -15 -2 -19 -10 -13 -7 6 -18 4 -30 -5 -11 -8 -15
-14 -10 -14 6 0 15 5 21 11 7 7 12 6 16 -5 4 -11 1 -16 -12 -16 -10 0 -22 -7
-25 -16 -5 -14 -4 -15 8 -5 12 10 20 10 38 -3 12 -9 17 -16 11 -16 -7 0 -15 4
-18 10 -7 11 -45 -9 -45 -24 0 -4 7 -3 15 4 12 10 18 10 30 0 8 -6 20 -8 26
-4 8 5 9 3 5 -5 -5 -7 -14 -10 -22 -7 -19 7 -17 -4 4 -20 16 -13 16 -14 -1 -8
-22 8 -20 -15 3 -33 13 -12 13 -12 0 -8 -11 4 -15 -2 -16 -21 -2 -25 -2 -25
20 -7 l21 18 -19 -22 c-15 -19 -22 -21 -34 -11 -9 8 -10 14 -3 16 16 5 14 19
-3 25 -10 4 -13 1 -9 -9 3 -8 -1 -14 -8 -14 -9 -1 -8 -4 3 -11 24 -13 24 -40
1 -32 -10 3 -15 2 -10 -2 4 -5 -1 -18 -10 -29 -14 -15 -14 -18 -2 -8 23 18 32
2 12 -21 -15 -17 -12 -16 14 3 36 26 41 32 19 24 -8 -3 -17 -1 -20 4 -3 5 6
10 19 10 27 0 31 -8 13 -26 -8 -8 -8 -15 3 -28 8 -10 9 -15 3 -11 -7 4 -11 -2
-11 -18 0 -14 4 -22 10 -18 6 4 7 1 3 -6 -5 -7 -14 -10 -20 -8 -7 3 -19 1 -27
-4 -11 -7 -11 -9 -1 -9 7 0 11 -4 8 -8 -2 -4 -1 -14 3 -21 6 -10 10 -9 14 4 5
10 3 14 -5 9 -7 -5 -8 -3 -4 5 5 7 11 10 14 7 3 -3 11 -1 18 5 8 7 14 7 19 -1
4 -6 1 -9 -7 -8 -7 2 -12 -3 -10 -10 1 -8 -2 -11 -9 -6 -9 5 -10 2 -6 -9 4
-11 1 -17 -8 -17 -8 0 -15 -5 -15 -11 0 -5 -5 -7 -11 -4 -6 4 -5 -2 3 -14 7
-12 17 -21 22 -21 4 0 3 6 -3 14 -8 9 -8 16 -2 20 5 4 12 2 16 -4 3 -5 3 -10
-2 -10 -4 0 -1 -5 7 -10 13 -9 13 -10 0 -10 -13 0 -13 -1 0 -11 11 -8 12 -12
2 -16 -6 -2 -10 -9 -7 -13 3 -5 0 -12 -6 -16 -8 -4 -9 -3 -5 4 4 7 2 12 -3 12
-6 0 -11 -7 -11 -15 0 -8 -4 -15 -10 -15 -5 0 -10 -5 -10 -11 0 -8 5 -8 15 1
12 10 18 10 30 0 8 -6 20 -8 26 -4 8 5 9 3 5 -5 -5 -7 -14 -10 -22 -7 -19 7
-17 -4 4 -20 16 -13 16 -14 -1 -8 -22 8 -20 -15 3 -33 13 -12 13 -12 0 -8 -11
4 -15 -2 -16 -21 -2 -25 -2 -25 20 -7 21 18 21 18 5 -2 -10 -12 -15 -32 -12
-47 2 -16 0 -28 -5 -28 -5 0 -8 10 -8 22 1 13 -4 31 -12 41 -10 11 -11 17 -4
17 17 0 15 17 -2 23 -10 4 -13 1 -9 -9 3 -8 -1 -14 -8 -14 -9 -1 -8 -4 3 -11
24 -13 24 -40 1 -32 -10 3 -15 2 -10 -2 4 -5 -1 -18 -10 -29 -14 -15 -14 -18
-2 -8 23 18 32 2 12 -22 -18 -21 -18 -21 3 -3 11 9 24 14 27 10 11 -11 8 -23
-5 -21 -7 2 -13 -4 -13 -12 0 -8 -5 -22 -10 -30 -7 -13 -6 -13 7 -2 10 8 14
21 11 30 -3 9 -3 14 2 10 4 -4 13 -3 20 2 8 7 12 5 12 -5 0 -8 -5 -11 -10 -8
-6 4 -8 0 -4 -10 3 -10 3 -17 -1 -17 -4 0 -18 -10 -32 -23 -14 -12 -21 -19
-15 -15 21 14 26 -5 8 -26 -18 -21 -18 -21 3 -3 11 9 24 14 27 10 4 -3 7 -1 7
5 0 7 -5 12 -11 12 -6 0 -9 5 -7 11 3 10 18 14 18 4 0 -3 9 -21 20 -40 12 -22
15 -34 7 -32 -7 1 -11 -8 -11 -21 1 -15 -2 -19 -10 -13 -7 6 -18 4 -30 -5 -11
-8 -15 -14 -10 -14 6 0 15 5 21 11 7 7 12 6 16 -5 4 -11 1 -16 -12 -16 -10 0
-22 -7 -25 -16 -5 -14 -4 -15 8 -5 12 10 20 10 38 -3 12 -9 17 -16 11 -16 -7
0 -15 4 -18 10 -7 11 -45 -9 -45 -24 0 -4 7 -3 15 4 12 10 18 10 30 0 8 -6 20
-8 26 -4 8 5 9 3 5 -5 -5 -7 -14 -10 -22 -7 -19 7 -17 -4 4 -20 16 -13 16 -14
-1 -8 -22 8 -20 -15 3 -33 13 -12 13 -12 0 -8 -11 4 -15 -2 -16 -21 -2 -25 -2
-25 20 -7 l21 18 -19 -22 c-15 -19 -22 -21 -34 -11 -9 8 -10 14 -3 16 16 5 14
19 -3 25 -10 4 -13 1 -9 -9 3 -8 -1 -14 -8 -14 -9 -1 -8 -4 4 -11 9 -5 17 -16
17 -24 0 -9 -6 -12 -17 -8 -10 3 -15 2 -10 -2 4 -5 -1 -18 -10 -29 -14 -15
-14 -18 -2 -8 23 18 32 2 12 -21 -15 -17 -12 -16 15 3 35 26 40 32 18 24 -8
-3 -17 -1 -20 4 -3 5 6 9 19 9 27 1 31 -7 13 -25 -8 -8 -8 -15 3 -28 8 -10 9
-15 3 -11 -7 4 -11 -2 -11 -18 0 -14 4 -22 10 -18 6 4 7 1 3 -6 -5 -7 -14 -10
-20 -8 -7 3 -19 1 -27 -4 -11 -7 -11 -9 -1 -9 7 0 11 -4 8 -8 -2 -4 -1 -14 3
-21 6 -10 10 -9 14 4 5 11 3 14 -6 9 -7 -4 -9 -3 -4 2 5 5 12 9 15 9 4 0 12 4
19 8 6 4 15 3 18 -3 4 -6 1 -9 -7 -8 -7 2 -12 -3 -10 -10 1 -8 -2 -11 -9 -6
-9 5 -10 2 -6 -9 4 -11 1 -17 -8 -17 -8 0 -15 -5 -15 -11 0 -5 -5 -7 -11 -4
-6 4 -5 -2 3 -14 7 -12 17 -21 22 -21 4 0 3 6 -3 14 -8 9 -8 16 -2 20 5 4 12
2 16 -4 3 -5 3 -10 -2 -10 -4 0 -1 -5 7 -10 13 -9 13 -10 0 -10 -13 0 -13 -1
0 -11 11 -8 12 -12 2 -16 -6 -2 -10 -9 -7 -13 3 -5 0 -12 -6 -16 -8 -4 -9 -3
-5 4 4 7 2 12 -3 12 -6 0 -11 -7 -11 -15 0 -8 -4 -15 -10 -15 -5 0 -10 -5 -10
-11 0 -8 5 -8 15 1 12 10 18 10 30 0 8 -6 20 -8 26 -4 8 5 9 3 5 -5 -5 -7 -14
-10 -22 -7 -19 7 -17 -4 4 -20 16 -13 16 -14 -1 -8 -22 8 -20 -15 3 -33 13
-11 12 -12 -4 -6 -13 4 -17 3 -13 -4 4 -6 3 -23 -3 -37 -5 -14 -6 -25 -2 -23
4 1 7 -2 7 -8 0 -5 -38 -11 -85 -13 -47 -2 -87 -6 -89 -8 -2 -2 581 -4 1297
-4 l1302 0 0 1300 0 1300 -70 0 c-49 0 -70 -4 -70 -12 0 -8 -3 -9 -8 -3 -4 6
-17 11 -30 11 -12 1 -20 -1 -17 -4z m-65 -173 c12 -8 10 -9 -9 -4 -17 5 -22 4
-16 -5 5 -9 4 -11 -4 -6 -6 4 -9 12 -6 17 8 12 16 11 35 -2z m-2117 -209 c-3
-12 -8 -19 -11 -16 -5 6 5 36 12 36 2 0 2 -9 -1 -20z m42 10 c3 -5 1 -10 -4
-10 -6 0 -11 5 -11 10 0 6 2 10 4 10 3 0 8 -4 11 -10z m-58 -46 c-3 -3 -12 -4
-19 -1 -8 3 -5 6 6 6 11 1 17 -2 13 -5z m1838 -72 c-3 -3 -11 0 -18 7 -9 10
-8 11 6 5 10 -3 15 -9 12 -12z m-1700 -2 c3 -5 1 -10 -4 -10 -6 0 -11 5 -11
10 0 6 2 10 4 10 3 0 8 -4 11 -10z m1712 -16 c-3 -3 -12 -4 -19 -1 -8 3 -5 6
6 6 11 1 17 -2 13 -5z m-1607 -38 c0 -3 -4 -8 -10 -11 -5 -3 -10 -1 -10 4 0 6
5 11 10 11 6 0 10 -2 10 -4z m65 -52 c9 -15 12 -23 6 -20 -14 9 -14 -7 0 -21
7 -7 6 -12 -6 -17 -9 -3 -14 -2 -10 3 8 14 -6 42 -19 34 -6 -3 -6 -1 2 8 17
18 15 34 -3 19 -9 -8 -15 -8 -15 -2 0 6 6 13 13 15 6 3 13 6 13 6 1 1 9 -11
19 -25z m1450 -14 c3 -5 1 -10 -4 -10 -6 0 -11 5 -11 10 0 6 2 10 4 10 3 0 8
-4 11 -10z m-1322 -93 c-2 -4 -8 -5 -13 -2 -4 3 -11 -1 -14 -7 -3 -7 -4 -4 -1
7 4 15 0 21 -15 22 -13 1 -18 -2 -14 -9 4 -7 2 -8 -4 -4 -9 5 -9 13 -2 27 11
19 12 19 39 -3 16 -13 26 -26 24 -31z m-476 28 c0 -11 -4 -12 -14 -4 -7 6 -13
13 -13 15 0 2 6 4 13 4 8 0 14 -7 14 -15z m38 -15 c-3 -5 -12 -10 -18 -10 -7
0 -6 4 3 10 19 12 23 12 15 0z m461 -79 c-4 -5 -14 -8 -24 -5 -12 4 -13 3 -4
-3 17 -13 24 -55 11 -73 -8 -11 -12 -12 -16 -2 -2 6 -10 9 -15 6 -7 -5 -8 -2
-2 7 5 8 10 25 10 39 1 14 2 31 3 39 1 8 8 11 19 7 16 -6 16 -5 0 8 -10 7 -18
17 -18 22 0 5 10 -1 21 -13 12 -11 18 -26 15 -32z m-49 17 c-3 -8 -6 -5 -6 6
-1 11 2 17 5 13 3 -3 4 -12 1 -19z m1083 -60 c0 -4 -7 -8 -15 -8 -9 0 -15 -6
-13 -12 2 -7 0 -14 -5 -15 -8 -3 -9 5 -2 28 5 16 35 22 35 7z m-54 -66 c-11
-10 -37 -11 -30 -1 3 5 10 7 15 4 5 -4 9 -1 9 4 0 6 -5 11 -11 11 -5 0 -7 5
-3 11 5 8 10 6 16 -5 6 -10 7 -20 4 -24z m-56 -54 c0 7 5 10 11 6 7 -4 1 -13
-15 -23 -14 -10 -23 -21 -19 -26 5 -4 3 -5 -4 -1 -9 5 -10 13 -1 32 8 18 14
21 20 12 6 -11 8 -10 8 0z m33 -23 c-3 -9 -8 -14 -10 -11 -3 3 -2 9 2 15 9 16
15 13 8 -4z m-79 -21 c3 -8 -3 -10 -17 -7 -21 4 -21 4 -4 -10 17 -14 17 -15
-1 -19 -18 -5 -19 -1 -13 43 2 11 30 6 35 -7z m-879 -13 c3 -5 2 -12 -3 -15
-5 -3 -9 1 -9 9 0 17 3 19 12 6z m95 -15 c0 -3 -4 -8 -10 -11 -5 -3 -10 -1
-10 4 0 6 5 11 10 11 6 0 10 -2 10 -4z m27 -78 c-3 -7 -5 -2 -5 12 0 14 2 19
5 13 2 -7 2 -19 0 -25z m663 -5 c0 -5 -5 -15 -10 -23 -7 -12 -9 -10 -7 8 1 19
17 33 17 15z m-1247 -28 c-3 -9 -8 -14 -10 -11 -3 3 -2 9 2 15 9 16 15 13 8
-4z m1267 -9 c0 -3 -4 -8 -10 -11 -5 -3 -10 -1 -10 4 0 6 5 11 10 11 6 0 10
-2 10 -4z m-507 -67 c2 -8 6 -19 9 -24 4 -6 3 -17 -3 -25 -6 -11 -9 -12 -9 -2
0 7 -4 11 -9 8 -5 -3 -11 1 -14 9 -4 9 -1 12 8 9 9 -4 12 1 10 13 -2 10 -4 20
-4 23 -1 3 -6 -2 -12 -10 -8 -12 -9 -10 -4 9 6 18 4 22 -6 15 -22 -13 -40 -14
-32 -1 4 7 8 15 9 20 1 4 2 10 3 14 2 12 52 -42 54 -58z m341 23 c2 -4 1 -14
-5 -22 -5 -8 -9 -13 -10 -10 0 3 -2 13 -4 23 -3 17 10 24 19 9z m-1092 -16 c7
4 8 2 4 -5 -9 -13 -26 -5 -25 12 0 9 2 8 6 -1 2 -6 10 -9 15 -6z m3 -46 c3 -6
-1 -7 -9 -4 -18 7 -21 14 -7 14 6 0 13 -4 16 -10z m1114 -7 c-6 -7 -17 -13
-23 -12 -7 0 -6 2 2 6 6 2 10 8 8 12 -3 4 1 8 9 8 11 0 12 -4 4 -14z m-273
-56 c1 -11 -16 -14 -45 -8 -2 1 1 7 8 14 8 10 7 17 -2 27 -6 7 -1 6 12 -3 14
-9 26 -23 27 -30z m159 23 c3 -5 1 -10 -4 -10 -6 0 -11 5 -11 10 0 6 2 10 4
10 3 0 8 -4 11 -10z m50 -20 c3 -5 1 -10 -4 -10 -6 0 -11 5 -11 10 0 6 2 10 4
10 3 0 8 -4 11 -10z m-260 -20 c3 -5 1 -10 -4 -10 -6 0 -11 5 -11 10 0 6 2 10
4 10 3 0 8 -4 11 -10z m-805 -115 c0 -8 -4 -15 -10 -15 -5 0 -7 7 -4 15 4 8 8
15 10 15 2 0 4 -7 4 -15z m-33 -210 c0 -11 -4 -12 -14 -4 -7 6 -13 13 -13 15
0 2 6 4 13 4 8 0 14 -7 14 -15z m38 -15 c-3 -5 -12 -10 -18 -10 -7 0 -6 4 3
10 19 12 23 12 15 0z m-2 -425 c-3 -9 -8 -14 -10 -11 -3 3 -2 9 2 15 9 16 15
13 8 -4z m9 -69 c7 4 8 2 4 -5 -9 -13 -26 -5 -25 12 0 9 2 8 6 -1 2 -6 10 -9
15 -6z m3 -46 c3 -6 -1 -7 -9 -4 -18 7 -21 14 -7 14 6 0 13 -4 16 -10z m-15
-195 c0 -8 -4 -15 -10 -15 -5 0 -7 7 -4 15 4 8 8 15 10 15 2 0 4 -7 4 -15z
m2290 -2 c0 -1 -8 -7 -18 -12 -13 -7 -19 -6 -19 2 0 7 9 13 19 13 10 0 18 -1
18 -3z m37 -13 c1 -11 -2 -18 -7 -15 -5 3 -11 1 -15 -5 -4 -6 -11 -7 -17 -4
-6 4 -8 3 -5 -3 3 -5 0 -10 -8 -10 -8 0 -15 4 -15 8 0 7 27 20 36 16 3 -1 10
6 15 16 13 22 14 21 16 -3z m40 3 c4 3 10 -37 11 -89 l3 -94 -66 0 c-47 0 -64
3 -59 12 5 7 3 8 -7 2 -23 -14 -34 -13 -59 6 -17 13 -20 19 -10 25 9 6 11 4 5
-5 -6 -9 -2 -10 15 -5 18 6 22 4 17 -7 -3 -8 0 -15 6 -15 7 0 12 10 12 23 0
12 -3 20 -7 18 -5 -3 -16 0 -25 6 -17 11 -17 11 0 6 9 -3 17 -1 17 5 0 6 4 7
10 4 6 -3 7 1 4 9 -3 9 -1 16 5 16 7 0 9 12 7 33 -5 29 -4 30 6 10 14 -28 18
-28 46 -3 12 12 22 18 22 14 0 -3 6 -1 14 6 8 6 12 19 9 28 -4 13 -3 14 5 3 5
-7 14 -11 19 -8z m-142 -79 c-8 -6 -13 -13 -10 -15 2 -3 -6 -5 -18 -6 -12 0
-16 1 -9 4 10 4 10 8 0 21 -11 15 -11 15 4 4 14 -11 17 -10 23 9 6 17 9 19 16
8 6 -9 3 -18 -6 -25z m-2215 -38 c0 -2 -8 -10 -17 -17 -16 -13 -17 -12 -4 4
13 16 21 21 21 13z"/>
<path d="M913 1435 c0 -8 4 -12 9 -9 5 3 6 10 3 15 -9 13 -12 11 -12 -6z"/>
<path d="M1025 1300 c-3 -6 1 -7 9 -4 18 7 21 14 7 14 -6 0 -13 -4 -16 -10z"/>
<path d="M2546 172 c-3 -6 -1 -14 5 -17 15 -10 25 3 12 16 -7 7 -13 7 -17 1z"/>
<path d="M2520 140 c-9 -6 -10 -10 -3 -10 6 0 15 5 18 10 8 12 4 12 -15 0z"/>
<path d="M2464 104 c-18 -14 -18 -15 4 -4 12 6 22 13 22 15 0 8 -5 6 -26 -11z"/>
<path d="M2213 2365 c0 -8 4 -12 9 -9 5 3 6 10 3 15 -9 13 -12 11 -12 -6z"/>
<path d="M286 2298 c3 -5 10 -6 15 -3 13 9 11 12 -6 12 -8 0 -12 -4 -9 -9z"/>
<path d="M2170 2281 c0 -10 26 -9 36 2 4 4 -2 7 -14 7 -12 0 -22 -4 -22 -9z"/>
<path d="M349 2243 c-13 -16 -12 -17 4 -4 9 7 17 15 17 17 0 8 -8 3 -21 -13z"/>
<path d="M2056 2222 c-3 -5 1 -9 9 -9 8 0 12 4 9 9 -3 4 -7 8 -9 8 -2 0 -6 -4
-9 -8z"/>
<path d="M2083 2185 c0 -8 4 -12 9 -9 5 3 6 10 3 15 -9 13 -12 11 -12 -6z"/>
<path d="M390 2150 c0 -5 5 -10 11 -10 5 0 7 5 4 10 -3 6 -8 10 -11 10 -2 0
-4 -4 -4 -10z"/>
<path d="M404 2123 c4 -8 2 -13 -5 -13 -8 0 -8 -4 1 -15 9 -11 16 -13 24 -5 7
7 16 4 29 -12 l19 -23 -15 26 c-12 20 -13 29 -4 40 10 11 9 11 -5 0 -15 -11
-21 -11 -35 0 -11 10 -14 10 -9 2z"/>
<path d="M130 2099 c0 -5 5 -7 10 -4 6 3 10 8 10 11 0 2 -4 4 -10 4 -5 0 -10
-5 -10 -11z"/>
<path d="M153 2088 c-4 -7 -8 -20 -8 -28 0 -8 -6 -14 -12 -12 -7 1 -13 -3 -13
-9 0 -6 6 -9 14 -6 7 3 18 1 23 -4 5 -5 9 1 9 16 0 14 -4 25 -9 25 -5 0 -4 7
3 15 7 8 10 15 7 15 -3 0 -9 -6 -14 -12z"/>
<path d="M1912 2072 c8 -9 14 -10 16 -3 2 6 9 8 15 4 7 -3 9 -2 4 2 -4 5 -16
9 -27 10 -16 1 -17 -1 -8 -13z"/>
<path d="M1893 2045 c0 -8 4 -12 9 -9 5 3 6 10 3 15 -9 13 -12 11 -12 -6z"/>
<path d="M1828 1973 c6 -2 12 -9 12 -15 0 -6 -7 -8 -14 -5 -11 4 -13 1 -9 -11
6 -15 5 -16 -12 -2 -17 14 -17 14 -5 -7 14 -21 14 -21 28 -2 7 11 18 16 24 13
6 -4 6 2 -1 15 -7 11 -17 21 -24 20 -9 0 -9 -2 1 -6z"/>
<path d="M634 1956 c1 -8 5 -18 8 -22 4 -3 5 1 4 10 -1 8 -5 18 -8 22 -4 3 -5
-1 -4 -10z"/>
<path d="M1773 1938 c4 -11 0 -18 -11 -21 -9 -3 -5 -4 10 -4 23 1 25 4 15 17
-19 25 -20 26 -14 8z"/>
<path d="M666 1883 c-6 -14 -5 -15 5 -6 7 7 10 15 7 18 -3 3 -9 -2 -12 -12z"/>
<path d="M115 1849 c-4 -6 -5 -12 -2 -15 2 -3 7 2 10 11 7 17 1 20 -8 4z"/>
<path d="M1630 1800 c0 -5 5 -10 11 -10 5 0 7 5 4 10 -3 6 -8 10 -11 10 -2 0
-4 -4 -4 -10z"/>
<path d="M154 1756 c-10 -8 -16 -18 -12 -22 4 -4 2 -14 -5 -23 -10 -14 -10
-14 5 -3 9 8 23 10 30 6 7 -4 10 -4 6 1 -4 4 -4 13 2 19 5 7 5 17 1 24 -5 9
-12 9 -27 -2z m20 -18 c-3 -4 -9 -8 -15 -8 -5 0 -9 4 -9 8 0 5 7 9 15 9 8 0
12 -4 9 -9z"/>
<path d="M641 1701 c-8 -5 -9 -11 -3 -15 5 -3 15 1 22 9 14 16 3 20 -19 6z"/>
<path d="M710 1686 c0 -2 7 -7 16 -10 8 -3 12 -2 9 4 -6 10 -25 14 -25 6z"/>
<path d="M715 1650 c-4 -6 -11 -8 -16 -4 -6 3 -5 -3 3 -15 17 -28 24 -27 24 4
0 28 -2 30 -11 15z"/>
<path d="M153 1608 c-4 -7 -8 -20 -8 -28 0 -8 -6 -14 -12 -12 -7 1 -13 -3 -13
-9 0 -6 6 -9 14 -6 7 3 18 1 23 -4 5 -5 9 1 9 16 0 14 -4 25 -9 25 -5 0 -4 7
3 15 7 8 10 15 7 15 -3 0 -9 -6 -14 -12z"/>
<path d="M1464 1597 c1 -17 -4 -21 -19 -19 l-20 4 20 -16 c11 -8 23 -16 26
-16 9 0 9 59 0 64 -4 3 -7 -5 -7 -17z"/>
<path d="M810 1596 c0 -8 4 -17 9 -20 5 -4 7 3 4 14 -6 23 -13 26 -13 6z"/>
<path d="M1330 1480 c0 -5 5 -10 10 -10 6 0 10 5 10 10 0 6 -4 10 -10 10 -5 0
-10 -4 -10 -10z"/>
<path d="M966 1458 c3 -5 10 -6 15 -3 13 9 11 12 -6 12 -8 0 -12 -4 -9 -9z"/>
<path d="M145 1389 c-4 -6 -4 -13 -1 -16 3 -3 0 -13 -7 -21 -11 -13 -9 -14 10
-1 16 9 19 16 10 21 -9 6 -8 10 3 18 9 6 10 10 3 10 -6 0 -15 -5 -18 -11z"/>
<path d="M115 1369 c-4 -6 -5 -12 -2 -15 2 -3 7 2 10 11 7 17 1 20 -8 4z"/>
<path d="M1100 1336 c7 -7 13 -7 20 0 6 6 3 10 -10 10 -13 0 -16 -4 -10 -10z"/>
<path d="M985 1320 c3 -5 8 -10 11 -10 2 0 4 5 4 10 0 6 -5 10 -11 10 -5 0 -7
-4 -4 -10z"/>
<path d="M117 1287 c-3 -8 1 -14 8 -14 7 0 11 6 8 14 -3 7 -6 13 -8 13 -2 0
-5 -6 -8 -13z"/>
<path d="M118 1213 c7 -3 16 -2 19 1 4 3 -2 6 -13 5 -11 0 -14 -3 -6 -6z"/>
<path d="M150 1200 c0 -5 5 -10 10 -10 6 0 10 5 10 10 0 6 -4 10 -10 10 -5 0
-10 -4 -10 -10z"/>
<path d="M120 1180 c-9 -6 -10 -10 -3 -10 6 0 15 5 18 10 8 12 4 12 -15 0z"/>
<path d="M153 1128 c-4 -7 -8 -20 -8 -28 0 -8 -6 -14 -12 -12 -7 1 -13 -3 -13
-9 0 -6 6 -9 14 -6 7 3 18 1 23 -4 5 -5 9 1 9 16 0 14 -4 25 -9 25 -5 0 -4 7
3 15 7 8 10 15 7 15 -3 0 -9 -6 -14 -12z"/>
<path d="M115 889 c-4 -6 -5 -12 -2 -15 2 -3 7 2 10 11 7 17 1 20 -8 4z"/>
<path d="M154 796 c-10 -8 -16 -18 -12 -22 4 -4 2 -14 -5 -23 -10 -14 -10 -14
5 -3 9 8 23 10 30 6 7 -4 10 -4 6 1 -4 4 -4 13 2 19 5 7 5 17 1 24 -5 9 -12 9
-27 -2z m20 -18 c-3 -4 -9 -8 -15 -8 -5 0 -9 4 -9 8 0 5 7 9 15 9 8 0 12 -4 9
-9z"/>
<path d="M153 648 c-4 -7 -8 -20 -8 -28 0 -8 -6 -14 -12 -12 -7 1 -13 -3 -13
-9 0 -6 6 -9 14 -6 7 3 18 1 23 -4 5 -5 9 1 9 16 0 14 -4 25 -9 25 -5 0 -4 7
3 15 7 8 10 15 7 15 -3 0 -9 -6 -14 -12z"/>
<path d="M145 429 c-4 -6 -4 -13 -1 -16 3 -3 0 -13 -7 -21 -11 -13 -9 -14 10
-1 16 9 19 16 10 21 -9 6 -8 10 3 18 9 6 10 10 3 10 -6 0 -15 -5 -18 -11z"/>
<path d="M115 409 c-4 -6 -5 -12 -2 -15 2 -3 7 2 10 11 7 17 1 20 -8 4z"/>
<path d="M117 327 c-3 -8 1 -14 8 -14 7 0 11 6 8 14 -6 16 -10 16 -16 0z"/>
<path d="M118 253 c7 -3 16 -2 19 1 4 3 -2 6 -13 5 -11 0 -14 -3 -6 -6z"/>
<path d="M150 240 c0 -5 5 -10 10 -10 6 0 10 5 10 10 0 6 -4 10 -10 10 -5 0
-10 -4 -10 -10z"/>
<path d="M120 220 c-9 -6 -10 -10 -3 -10 6 0 15 5 18 10 8 12 4 12 -15 0z"/>
<path d="M153 168 c-4 -7 -8 -20 -8 -28 0 -8 -6 -14 -12 -13 -7 2 -13 -2 -13
-8 0 -6 6 -9 14 -6 7 3 18 1 23 -4 5 -5 9 1 9 16 0 14 -4 25 -9 25 -5 0 -4 7
3 15 7 8 10 15 7 15 -3 0 -9 -6 -14 -12z"/>
<path d="M146 89 c4 -6 1 -15 -6 -19 -8 -5 -7 -9 5 -13 9 -4 13 -3 10 3 -3 6
-1 10 4 10 17 0 13 17 -5 24 -9 4 -13 2 -8 -5z"/>
<path d="M126 42 c-3 -5 1 -9 9 -9 8 0 12 4 9 9 -3 4 -7 8 -9 8 -2 0 -6 -4 -9
-8z"/>
</g>
</svg>
